<?xml version="1.0" encoding="utf-8" standalone="no"?>
<!DOCTYPE svg PUBLIC "-//W3C//DTD SVG 1.1//EN"
  "http://www.w3.org/Graphics/SVG/1.1/DTD/svg11.dtd">
<svg xmlns:xlink="http://www.w3.org/1999/xlink" width="234pt" height="295.2pt" viewBox="0 0 234 295.2" xmlns="http://www.w3.org/2000/svg" version="1.1">
 <metadata>
  <rdf:RDF xmlns:dc="http://purl.org/dc/elements/1.1/" xmlns:cc="http://creativecommons.org/ns#" xmlns:rdf="http://www.w3.org/1999/02/22-rdf-syntax-ns#">
   <cc:Work>
    <dc:type rdf:resource="http://purl.org/dc/dcmitype/StillImage"/>
    <dc:date>2026-07-16T18:30:21.032674</dc:date>
    <dc:format>image/svg+xml</dc:format>
    <dc:creator>
     <cc:Agent>
      <dc:title>Matplotlib v3.10.9, https://matplotlib.org/</dc:title>
     </cc:Agent>
    </dc:creator>
   </cc:Work>
  </rdf:RDF>
 </metadata>
 <defs>
  <style type="text/css">*{stroke-linejoin: round; stroke-linecap: butt}</style>
 </defs>
 <g id="figure_1">
  <g id="patch_1">
   <path d="M 0 295.2 
L 234 295.2 
L 234 0 
L 0 0 
L 0 295.2 
z
" style="fill: none"/>
  </g>
  <g id="axes_1">
   <g id="patch_2">
    <path d="M 36.480803 128.119582 
L 226.720916 128.119582 
L 226.720916 17.338828 
L 36.480803 17.338828 
L 36.480803 128.119582 
z
" style="fill: none"/>
   </g>
   <g id="matplotlib.axis_1">
    <g id="xtick_1">
     <g id="line2d_1">
      <defs>
       <path id="m5732966ab0" d="M 0 0 
L 0 2.5 
" style="stroke: #555555; stroke-width: 0.6"/>
      </defs>
      <g>
       <use xlink:href="#m5732966ab0" x="47.541274" y="128.119582" style="fill: #555555; stroke: #555555; stroke-width: 0.6"/>
      </g>
     </g>
     <g id="text_1">
      <!-- 40 -->
      <g style="fill: #555555" transform="translate(43.214774 139.286519) scale(0.068 -0.068)">
       <defs>
        <path id="DejaVuSans-34" d="M 2419 4116 
L 825 1625 
L 2419 1625 
L 2419 4116 
z
M 2253 4666 
L 3047 4666 
L 3047 1625 
L 3713 1625 
L 3713 1100 
L 3047 1100 
L 3047 0 
L 2419 0 
L 2419 1100 
L 313 1100 
L 313 1709 
L 2253 4666 
z
" transform="scale(0.015625)"/>
        <path id="DejaVuSans-30" d="M 2034 4250 
Q 1547 4250 1301 3770 
Q 1056 3291 1056 2328 
Q 1056 1369 1301 889 
Q 1547 409 2034 409 
Q 2525 409 2770 889 
Q 3016 1369 3016 2328 
Q 3016 3291 2770 3770 
Q 2525 4250 2034 4250 
z
M 2034 4750 
Q 2819 4750 3233 4129 
Q 3647 3509 3647 2328 
Q 3647 1150 3233 529 
Q 2819 -91 2034 -91 
Q 1250 -91 836 529 
Q 422 1150 422 2328 
Q 422 3509 836 4129 
Q 1250 4750 2034 4750 
z
" transform="scale(0.015625)"/>
       </defs>
       <use xlink:href="#DejaVuSans-34"/>
       <use xlink:href="#DejaVuSans-30" transform="translate(63.623047 0)"/>
      </g>
     </g>
    </g>
    <g id="xtick_2">
     <g id="line2d_2">
      <g>
       <use xlink:href="#m5732966ab0" x="69.662218" y="128.119582" style="fill: #555555; stroke: #555555; stroke-width: 0.6"/>
      </g>
     </g>
     <g id="text_2">
      <!-- 60 -->
      <g style="fill: #555555" transform="translate(65.335718 139.286519) scale(0.068 -0.068)">
       <defs>
        <path id="DejaVuSans-36" d="M 2113 2584 
Q 1688 2584 1439 2293 
Q 1191 2003 1191 1497 
Q 1191 994 1439 701 
Q 1688 409 2113 409 
Q 2538 409 2786 701 
Q 3034 994 3034 1497 
Q 3034 2003 2786 2293 
Q 2538 2584 2113 2584 
z
M 3366 4563 
L 3366 3988 
Q 3128 4100 2886 4159 
Q 2644 4219 2406 4219 
Q 1781 4219 1451 3797 
Q 1122 3375 1075 2522 
Q 1259 2794 1537 2939 
Q 1816 3084 2150 3084 
Q 2853 3084 3261 2657 
Q 3669 2231 3669 1497 
Q 3669 778 3244 343 
Q 2819 -91 2113 -91 
Q 1303 -91 875 529 
Q 447 1150 447 2328 
Q 447 3434 972 4092 
Q 1497 4750 2381 4750 
Q 2619 4750 2861 4703 
Q 3103 4656 3366 4563 
z
" transform="scale(0.015625)"/>
       </defs>
       <use xlink:href="#DejaVuSans-36"/>
       <use xlink:href="#DejaVuSans-30" transform="translate(63.623047 0)"/>
      </g>
     </g>
    </g>
    <g id="xtick_3">
     <g id="line2d_3">
      <g>
       <use xlink:href="#m5732966ab0" x="91.783161" y="128.119582" style="fill: #555555; stroke: #555555; stroke-width: 0.6"/>
      </g>
     </g>
     <g id="text_3">
      <!-- 80 -->
      <g style="fill: #555555" transform="translate(87.456661 139.286519) scale(0.068 -0.068)">
       <defs>
        <path id="DejaVuSans-38" d="M 2034 2216 
Q 1584 2216 1326 1975 
Q 1069 1734 1069 1313 
Q 1069 891 1326 650 
Q 1584 409 2034 409 
Q 2484 409 2743 651 
Q 3003 894 3003 1313 
Q 3003 1734 2745 1975 
Q 2488 2216 2034 2216 
z
M 1403 2484 
Q 997 2584 770 2862 
Q 544 3141 544 3541 
Q 544 4100 942 4425 
Q 1341 4750 2034 4750 
Q 2731 4750 3128 4425 
Q 3525 4100 3525 3541 
Q 3525 3141 3298 2862 
Q 3072 2584 2669 2484 
Q 3125 2378 3379 2068 
Q 3634 1759 3634 1313 
Q 3634 634 3220 271 
Q 2806 -91 2034 -91 
Q 1263 -91 848 271 
Q 434 634 434 1313 
Q 434 1759 690 2068 
Q 947 2378 1403 2484 
z
M 1172 3481 
Q 1172 3119 1398 2916 
Q 1625 2713 2034 2713 
Q 2441 2713 2670 2916 
Q 2900 3119 2900 3481 
Q 2900 3844 2670 4047 
Q 2441 4250 2034 4250 
Q 1625 4250 1398 4047 
Q 1172 3844 1172 3481 
z
" transform="scale(0.015625)"/>
       </defs>
       <use xlink:href="#DejaVuSans-38"/>
       <use xlink:href="#DejaVuSans-30" transform="translate(63.623047 0)"/>
      </g>
     </g>
    </g>
    <g id="xtick_4">
     <g id="line2d_4">
      <g>
       <use xlink:href="#m5732966ab0" x="113.904105" y="128.119582" style="fill: #555555; stroke: #555555; stroke-width: 0.6"/>
      </g>
     </g>
     <g id="text_4">
      <!-- 100 -->
      <g style="fill: #555555" transform="translate(107.414355 139.286519) scale(0.068 -0.068)">
       <defs>
        <path id="DejaVuSans-31" d="M 794 531 
L 1825 531 
L 1825 4091 
L 703 3866 
L 703 4441 
L 1819 4666 
L 2450 4666 
L 2450 531 
L 3481 531 
L 3481 0 
L 794 0 
L 794 531 
z
" transform="scale(0.015625)"/>
       </defs>
       <use xlink:href="#DejaVuSans-31"/>
       <use xlink:href="#DejaVuSans-30" transform="translate(63.623047 0)"/>
       <use xlink:href="#DejaVuSans-30" transform="translate(127.246094 0)"/>
      </g>
     </g>
    </g>
    <g id="xtick_5">
     <g id="line2d_5">
      <g>
       <use xlink:href="#m5732966ab0" x="136.025048" y="128.119582" style="fill: #555555; stroke: #555555; stroke-width: 0.6"/>
      </g>
     </g>
     <g id="text_5">
      <!-- 120 -->
      <g style="fill: #555555" transform="translate(129.535298 139.286519) scale(0.068 -0.068)">
       <defs>
        <path id="DejaVuSans-32" d="M 1228 531 
L 3431 531 
L 3431 0 
L 469 0 
L 469 531 
Q 828 903 1448 1529 
Q 2069 2156 2228 2338 
Q 2531 2678 2651 2914 
Q 2772 3150 2772 3378 
Q 2772 3750 2511 3984 
Q 2250 4219 1831 4219 
Q 1534 4219 1204 4116 
Q 875 4013 500 3803 
L 500 4441 
Q 881 4594 1212 4672 
Q 1544 4750 1819 4750 
Q 2544 4750 2975 4387 
Q 3406 4025 3406 3419 
Q 3406 3131 3298 2873 
Q 3191 2616 2906 2266 
Q 2828 2175 2409 1742 
Q 1991 1309 1228 531 
z
" transform="scale(0.015625)"/>
       </defs>
       <use xlink:href="#DejaVuSans-31"/>
       <use xlink:href="#DejaVuSans-32" transform="translate(63.623047 0)"/>
       <use xlink:href="#DejaVuSans-30" transform="translate(127.246094 0)"/>
      </g>
     </g>
    </g>
    <g id="xtick_6">
     <g id="line2d_6">
      <g>
       <use xlink:href="#m5732966ab0" x="158.145991" y="128.119582" style="fill: #555555; stroke: #555555; stroke-width: 0.6"/>
      </g>
     </g>
     <g id="text_6">
      <!-- 140 -->
      <g style="fill: #555555" transform="translate(151.656241 139.286519) scale(0.068 -0.068)">
       <use xlink:href="#DejaVuSans-31"/>
       <use xlink:href="#DejaVuSans-34" transform="translate(63.623047 0)"/>
       <use xlink:href="#DejaVuSans-30" transform="translate(127.246094 0)"/>
      </g>
     </g>
    </g>
    <g id="xtick_7">
     <g id="line2d_7">
      <g>
       <use xlink:href="#m5732966ab0" x="180.266935" y="128.119582" style="fill: #555555; stroke: #555555; stroke-width: 0.6"/>
      </g>
     </g>
     <g id="text_7">
      <!-- 160 -->
      <g style="fill: #555555" transform="translate(173.777185 139.286519) scale(0.068 -0.068)">
       <use xlink:href="#DejaVuSans-31"/>
       <use xlink:href="#DejaVuSans-36" transform="translate(63.623047 0)"/>
       <use xlink:href="#DejaVuSans-30" transform="translate(127.246094 0)"/>
      </g>
     </g>
    </g>
    <g id="xtick_8">
     <g id="line2d_8">
      <g>
       <use xlink:href="#m5732966ab0" x="202.387878" y="128.119582" style="fill: #555555; stroke: #555555; stroke-width: 0.6"/>
      </g>
     </g>
     <g id="text_8">
      <!-- 180 -->
      <g style="fill: #555555" transform="translate(195.898128 139.286519) scale(0.068 -0.068)">
       <use xlink:href="#DejaVuSans-31"/>
       <use xlink:href="#DejaVuSans-38" transform="translate(63.623047 0)"/>
       <use xlink:href="#DejaVuSans-30" transform="translate(127.246094 0)"/>
      </g>
     </g>
    </g>
    <g id="xtick_9">
     <g id="line2d_9">
      <g>
       <use xlink:href="#m5732966ab0" x="224.508822" y="128.119582" style="fill: #555555; stroke: #555555; stroke-width: 0.6"/>
      </g>
     </g>
     <g id="text_9">
      <!-- 200 -->
      <g style="fill: #555555" transform="translate(218.019072 139.286519) scale(0.068 -0.068)">
       <use xlink:href="#DejaVuSans-32"/>
       <use xlink:href="#DejaVuSans-30" transform="translate(63.623047 0)"/>
       <use xlink:href="#DejaVuSans-30" transform="translate(127.246094 0)"/>
      </g>
     </g>
    </g>
    <g id="text_10">
     <!-- epoch -->
     <g style="fill: #222222" transform="translate(120.636609 150.171582) scale(0.072 -0.072)">
      <defs>
       <path id="DejaVuSans-65" d="M 3597 1894 
L 3597 1613 
L 953 1613 
Q 991 1019 1311 708 
Q 1631 397 2203 397 
Q 2534 397 2845 478 
Q 3156 559 3463 722 
L 3463 178 
Q 3153 47 2828 -22 
Q 2503 -91 2169 -91 
Q 1331 -91 842 396 
Q 353 884 353 1716 
Q 353 2575 817 3079 
Q 1281 3584 2069 3584 
Q 2775 3584 3186 3129 
Q 3597 2675 3597 1894 
z
M 3022 2063 
Q 3016 2534 2758 2815 
Q 2500 3097 2075 3097 
Q 1594 3097 1305 2825 
Q 1016 2553 972 2059 
L 3022 2063 
z
" transform="scale(0.015625)"/>
       <path id="DejaVuSans-70" d="M 1159 525 
L 1159 -1331 
L 581 -1331 
L 581 3500 
L 1159 3500 
L 1159 2969 
Q 1341 3281 1617 3432 
Q 1894 3584 2278 3584 
Q 2916 3584 3314 3078 
Q 3713 2572 3713 1747 
Q 3713 922 3314 415 
Q 2916 -91 2278 -91 
Q 1894 -91 1617 61 
Q 1341 213 1159 525 
z
M 3116 1747 
Q 3116 2381 2855 2742 
Q 2594 3103 2138 3103 
Q 1681 3103 1420 2742 
Q 1159 2381 1159 1747 
Q 1159 1113 1420 752 
Q 1681 391 2138 391 
Q 2594 391 2855 752 
Q 3116 1113 3116 1747 
z
" transform="scale(0.015625)"/>
       <path id="DejaVuSans-6f" d="M 1959 3097 
Q 1497 3097 1228 2736 
Q 959 2375 959 1747 
Q 959 1119 1226 758 
Q 1494 397 1959 397 
Q 2419 397 2687 759 
Q 2956 1122 2956 1747 
Q 2956 2369 2687 2733 
Q 2419 3097 1959 3097 
z
M 1959 3584 
Q 2709 3584 3137 3096 
Q 3566 2609 3566 1747 
Q 3566 888 3137 398 
Q 2709 -91 1959 -91 
Q 1206 -91 779 398 
Q 353 888 353 1747 
Q 353 2609 779 3096 
Q 1206 3584 1959 3584 
z
" transform="scale(0.015625)"/>
       <path id="DejaVuSans-63" d="M 3122 3366 
L 3122 2828 
Q 2878 2963 2633 3030 
Q 2388 3097 2138 3097 
Q 1578 3097 1268 2742 
Q 959 2388 959 1747 
Q 959 1106 1268 751 
Q 1578 397 2138 397 
Q 2388 397 2633 464 
Q 2878 531 3122 666 
L 3122 134 
Q 2881 22 2623 -34 
Q 2366 -91 2075 -91 
Q 1284 -91 818 406 
Q 353 903 353 1747 
Q 353 2603 823 3093 
Q 1294 3584 2113 3584 
Q 2378 3584 2631 3529 
Q 2884 3475 3122 3366 
z
" transform="scale(0.015625)"/>
       <path id="DejaVuSans-68" d="M 3513 2113 
L 3513 0 
L 2938 0 
L 2938 2094 
Q 2938 2591 2744 2837 
Q 2550 3084 2163 3084 
Q 1697 3084 1428 2787 
Q 1159 2491 1159 1978 
L 1159 0 
L 581 0 
L 581 4863 
L 1159 4863 
L 1159 2956 
Q 1366 3272 1645 3428 
Q 1925 3584 2291 3584 
Q 2894 3584 3203 3211 
Q 3513 2838 3513 2113 
z
" transform="scale(0.015625)"/>
      </defs>
      <use xlink:href="#DejaVuSans-65"/>
      <use xlink:href="#DejaVuSans-70" transform="translate(61.523438 0)"/>
      <use xlink:href="#DejaVuSans-6f" transform="translate(125 0)"/>
      <use xlink:href="#DejaVuSans-63" transform="translate(186.181641 0)"/>
      <use xlink:href="#DejaVuSans-68" transform="translate(241.162109 0)"/>
     </g>
    </g>
   </g>
   <g id="matplotlib.axis_2">
    <g id="ytick_1">
     <g id="line2d_10">
      <path d="M 36.480803 124.954417 
L 226.720916 124.954417 
" clip-path="url(#p9e7a15e215)" style="fill: none; stroke: #dddddd; stroke-width: 0.5; stroke-linecap: square"/>
     </g>
     <g id="line2d_11">
      <defs>
       <path id="m8a23b9f10e" d="M 0 0 
L -2.5 0 
" style="stroke: #555555; stroke-width: 0.6"/>
      </defs>
      <g>
       <use xlink:href="#m8a23b9f10e" x="36.480803" y="124.954417" style="fill: #555555; stroke: #555555; stroke-width: 0.6"/>
      </g>
     </g>
     <g id="text_11">
      <!-- −5.0 -->
      <g style="fill: #555555" transform="translate(13.96849 127.537886) scale(0.068 -0.068)">
       <defs>
        <path id="DejaVuSans-2212" d="M 678 2272 
L 4684 2272 
L 4684 1741 
L 678 1741 
L 678 2272 
z
" transform="scale(0.015625)"/>
        <path id="DejaVuSans-35" d="M 691 4666 
L 3169 4666 
L 3169 4134 
L 1269 4134 
L 1269 2991 
Q 1406 3038 1543 3061 
Q 1681 3084 1819 3084 
Q 2600 3084 3056 2656 
Q 3513 2228 3513 1497 
Q 3513 744 3044 326 
Q 2575 -91 1722 -91 
Q 1428 -91 1123 -41 
Q 819 9 494 109 
L 494 744 
Q 775 591 1075 516 
Q 1375 441 1709 441 
Q 2250 441 2565 725 
Q 2881 1009 2881 1497 
Q 2881 1984 2565 2268 
Q 2250 2553 1709 2553 
Q 1456 2553 1204 2497 
Q 953 2441 691 2322 
L 691 4666 
z
" transform="scale(0.015625)"/>
        <path id="DejaVuSans-2e" d="M 684 794 
L 1344 794 
L 1344 0 
L 684 0 
L 684 794 
z
" transform="scale(0.015625)"/>
       </defs>
       <use xlink:href="#DejaVuSans-2212"/>
       <use xlink:href="#DejaVuSans-35" transform="translate(83.789062 0)"/>
       <use xlink:href="#DejaVuSans-2e" transform="translate(147.412109 0)"/>
       <use xlink:href="#DejaVuSans-30" transform="translate(179.199219 0)"/>
      </g>
     </g>
    </g>
    <g id="ytick_2">
     <g id="line2d_12">
      <path d="M 36.480803 109.128595 
L 226.720916 109.128595 
" clip-path="url(#p9e7a15e215)" style="fill: none; stroke: #dddddd; stroke-width: 0.5; stroke-linecap: square"/>
     </g>
     <g id="line2d_13">
      <g>
       <use xlink:href="#m8a23b9f10e" x="36.480803" y="109.128595" style="fill: #555555; stroke: #555555; stroke-width: 0.6"/>
      </g>
     </g>
     <g id="text_12">
      <!-- −2.5 -->
      <g style="fill: #555555" transform="translate(13.96849 111.712064) scale(0.068 -0.068)">
       <use xlink:href="#DejaVuSans-2212"/>
       <use xlink:href="#DejaVuSans-32" transform="translate(83.789062 0)"/>
       <use xlink:href="#DejaVuSans-2e" transform="translate(147.412109 0)"/>
       <use xlink:href="#DejaVuSans-35" transform="translate(179.199219 0)"/>
      </g>
     </g>
    </g>
    <g id="ytick_3">
     <g id="line2d_14">
      <path d="M 36.480803 93.302773 
L 226.720916 93.302773 
" clip-path="url(#p9e7a15e215)" style="fill: none; stroke: #dddddd; stroke-width: 0.5; stroke-linecap: square"/>
     </g>
     <g id="line2d_15">
      <g>
       <use xlink:href="#m8a23b9f10e" x="36.480803" y="93.302773" style="fill: #555555; stroke: #555555; stroke-width: 0.6"/>
      </g>
     </g>
     <g id="text_13">
      <!-- 0.0 -->
      <g style="fill: #555555" transform="translate(19.666678 95.886242) scale(0.068 -0.068)">
       <use xlink:href="#DejaVuSans-30"/>
       <use xlink:href="#DejaVuSans-2e" transform="translate(63.623047 0)"/>
       <use xlink:href="#DejaVuSans-30" transform="translate(95.410156 0)"/>
      </g>
     </g>
    </g>
    <g id="ytick_4">
     <g id="line2d_16">
      <path d="M 36.480803 77.476952 
L 226.720916 77.476952 
" clip-path="url(#p9e7a15e215)" style="fill: none; stroke: #dddddd; stroke-width: 0.5; stroke-linecap: square"/>
     </g>
     <g id="line2d_17">
      <g>
       <use xlink:href="#m8a23b9f10e" x="36.480803" y="77.476952" style="fill: #555555; stroke: #555555; stroke-width: 0.6"/>
      </g>
     </g>
     <g id="text_14">
      <!-- 2.5 -->
      <g style="fill: #555555" transform="translate(19.666678 80.06042) scale(0.068 -0.068)">
       <use xlink:href="#DejaVuSans-32"/>
       <use xlink:href="#DejaVuSans-2e" transform="translate(63.623047 0)"/>
       <use xlink:href="#DejaVuSans-35" transform="translate(95.410156 0)"/>
      </g>
     </g>
    </g>
    <g id="ytick_5">
     <g id="line2d_18">
      <path d="M 36.480803 61.65113 
L 226.720916 61.65113 
" clip-path="url(#p9e7a15e215)" style="fill: none; stroke: #dddddd; stroke-width: 0.5; stroke-linecap: square"/>
     </g>
     <g id="line2d_19">
      <g>
       <use xlink:href="#m8a23b9f10e" x="36.480803" y="61.65113" style="fill: #555555; stroke: #555555; stroke-width: 0.6"/>
      </g>
     </g>
     <g id="text_15">
      <!-- 5.0 -->
      <g style="fill: #555555" transform="translate(19.666678 64.234598) scale(0.068 -0.068)">
       <use xlink:href="#DejaVuSans-35"/>
       <use xlink:href="#DejaVuSans-2e" transform="translate(63.623047 0)"/>
       <use xlink:href="#DejaVuSans-30" transform="translate(95.410156 0)"/>
      </g>
     </g>
    </g>
    <g id="ytick_6">
     <g id="line2d_20">
      <path d="M 36.480803 45.825308 
L 226.720916 45.825308 
" clip-path="url(#p9e7a15e215)" style="fill: none; stroke: #dddddd; stroke-width: 0.5; stroke-linecap: square"/>
     </g>
     <g id="line2d_21">
      <g>
       <use xlink:href="#m8a23b9f10e" x="36.480803" y="45.825308" style="fill: #555555; stroke: #555555; stroke-width: 0.6"/>
      </g>
     </g>
     <g id="text_16">
      <!-- 7.5 -->
      <g style="fill: #555555" transform="translate(19.666678 48.408776) scale(0.068 -0.068)">
       <defs>
        <path id="DejaVuSans-37" d="M 525 4666 
L 3525 4666 
L 3525 4397 
L 1831 0 
L 1172 0 
L 2766 4134 
L 525 4134 
L 525 4666 
z
" transform="scale(0.015625)"/>
       </defs>
       <use xlink:href="#DejaVuSans-37"/>
       <use xlink:href="#DejaVuSans-2e" transform="translate(63.623047 0)"/>
       <use xlink:href="#DejaVuSans-35" transform="translate(95.410156 0)"/>
      </g>
     </g>
    </g>
    <g id="ytick_7">
     <g id="line2d_22">
      <path d="M 36.480803 29.999486 
L 226.720916 29.999486 
" clip-path="url(#p9e7a15e215)" style="fill: none; stroke: #dddddd; stroke-width: 0.5; stroke-linecap: square"/>
     </g>
     <g id="line2d_23">
      <g>
       <use xlink:href="#m8a23b9f10e" x="36.480803" y="29.999486" style="fill: #555555; stroke: #555555; stroke-width: 0.6"/>
      </g>
     </g>
     <g id="text_17">
      <!-- 10.0 -->
      <g style="fill: #555555" transform="translate(15.340178 32.582954) scale(0.068 -0.068)">
       <use xlink:href="#DejaVuSans-31"/>
       <use xlink:href="#DejaVuSans-30" transform="translate(63.623047 0)"/>
       <use xlink:href="#DejaVuSans-2e" transform="translate(127.246094 0)"/>
       <use xlink:href="#DejaVuSans-30" transform="translate(159.033203 0)"/>
      </g>
     </g>
    </g>
    <g id="text_18">
     <!-- validation NLL (nats) -->
     <g style="fill: #222222" transform="translate(8.471115 110.030267) rotate(-90) scale(0.072 -0.072)">
      <defs>
       <path id="DejaVuSans-76" d="M 191 3500 
L 800 3500 
L 1894 563 
L 2988 3500 
L 3597 3500 
L 2284 0 
L 1503 0 
L 191 3500 
z
" transform="scale(0.015625)"/>
       <path id="DejaVuSans-61" d="M 2194 1759 
Q 1497 1759 1228 1600 
Q 959 1441 959 1056 
Q 959 750 1161 570 
Q 1363 391 1709 391 
Q 2188 391 2477 730 
Q 2766 1069 2766 1631 
L 2766 1759 
L 2194 1759 
z
M 3341 1997 
L 3341 0 
L 2766 0 
L 2766 531 
Q 2569 213 2275 61 
Q 1981 -91 1556 -91 
Q 1019 -91 701 211 
Q 384 513 384 1019 
Q 384 1609 779 1909 
Q 1175 2209 1959 2209 
L 2766 2209 
L 2766 2266 
Q 2766 2663 2505 2880 
Q 2244 3097 1772 3097 
Q 1472 3097 1187 3025 
Q 903 2953 641 2809 
L 641 3341 
Q 956 3463 1253 3523 
Q 1550 3584 1831 3584 
Q 2591 3584 2966 3190 
Q 3341 2797 3341 1997 
z
" transform="scale(0.015625)"/>
       <path id="DejaVuSans-6c" d="M 603 4863 
L 1178 4863 
L 1178 0 
L 603 0 
L 603 4863 
z
" transform="scale(0.015625)"/>
       <path id="DejaVuSans-69" d="M 603 3500 
L 1178 3500 
L 1178 0 
L 603 0 
L 603 3500 
z
M 603 4863 
L 1178 4863 
L 1178 4134 
L 603 4134 
L 603 4863 
z
" transform="scale(0.015625)"/>
       <path id="DejaVuSans-64" d="M 2906 2969 
L 2906 4863 
L 3481 4863 
L 3481 0 
L 2906 0 
L 2906 525 
Q 2725 213 2448 61 
Q 2172 -91 1784 -91 
Q 1150 -91 751 415 
Q 353 922 353 1747 
Q 353 2572 751 3078 
Q 1150 3584 1784 3584 
Q 2172 3584 2448 3432 
Q 2725 3281 2906 2969 
z
M 947 1747 
Q 947 1113 1208 752 
Q 1469 391 1925 391 
Q 2381 391 2643 752 
Q 2906 1113 2906 1747 
Q 2906 2381 2643 2742 
Q 2381 3103 1925 3103 
Q 1469 3103 1208 2742 
Q 947 2381 947 1747 
z
" transform="scale(0.015625)"/>
       <path id="DejaVuSans-74" d="M 1172 4494 
L 1172 3500 
L 2356 3500 
L 2356 3053 
L 1172 3053 
L 1172 1153 
Q 1172 725 1289 603 
Q 1406 481 1766 481 
L 2356 481 
L 2356 0 
L 1766 0 
Q 1100 0 847 248 
Q 594 497 594 1153 
L 594 3053 
L 172 3053 
L 172 3500 
L 594 3500 
L 594 4494 
L 1172 4494 
z
" transform="scale(0.015625)"/>
       <path id="DejaVuSans-6e" d="M 3513 2113 
L 3513 0 
L 2938 0 
L 2938 2094 
Q 2938 2591 2744 2837 
Q 2550 3084 2163 3084 
Q 1697 3084 1428 2787 
Q 1159 2491 1159 1978 
L 1159 0 
L 581 0 
L 581 3500 
L 1159 3500 
L 1159 2956 
Q 1366 3272 1645 3428 
Q 1925 3584 2291 3584 
Q 2894 3584 3203 3211 
Q 3513 2838 3513 2113 
z
" transform="scale(0.015625)"/>
       <path id="DejaVuSans-20" transform="scale(0.015625)"/>
       <path id="DejaVuSans-4e" d="M 628 4666 
L 1478 4666 
L 3547 763 
L 3547 4666 
L 4159 4666 
L 4159 0 
L 3309 0 
L 1241 3903 
L 1241 0 
L 628 0 
L 628 4666 
z
" transform="scale(0.015625)"/>
       <path id="DejaVuSans-4c" d="M 628 4666 
L 1259 4666 
L 1259 531 
L 3531 531 
L 3531 0 
L 628 0 
L 628 4666 
z
" transform="scale(0.015625)"/>
       <path id="DejaVuSans-28" d="M 1984 4856 
Q 1566 4138 1362 3434 
Q 1159 2731 1159 2009 
Q 1159 1288 1364 580 
Q 1569 -128 1984 -844 
L 1484 -844 
Q 1016 -109 783 600 
Q 550 1309 550 2009 
Q 550 2706 781 3412 
Q 1013 4119 1484 4856 
L 1984 4856 
z
" transform="scale(0.015625)"/>
       <path id="DejaVuSans-73" d="M 2834 3397 
L 2834 2853 
Q 2591 2978 2328 3040 
Q 2066 3103 1784 3103 
Q 1356 3103 1142 2972 
Q 928 2841 928 2578 
Q 928 2378 1081 2264 
Q 1234 2150 1697 2047 
L 1894 2003 
Q 2506 1872 2764 1633 
Q 3022 1394 3022 966 
Q 3022 478 2636 193 
Q 2250 -91 1575 -91 
Q 1294 -91 989 -36 
Q 684 19 347 128 
L 347 722 
Q 666 556 975 473 
Q 1284 391 1588 391 
Q 1994 391 2212 530 
Q 2431 669 2431 922 
Q 2431 1156 2273 1281 
Q 2116 1406 1581 1522 
L 1381 1569 
Q 847 1681 609 1914 
Q 372 2147 372 2553 
Q 372 3047 722 3315 
Q 1072 3584 1716 3584 
Q 2034 3584 2315 3537 
Q 2597 3491 2834 3397 
z
" transform="scale(0.015625)"/>
       <path id="DejaVuSans-29" d="M 513 4856 
L 1013 4856 
Q 1481 4119 1714 3412 
Q 1947 2706 1947 2009 
Q 1947 1309 1714 600 
Q 1481 -109 1013 -844 
L 513 -844 
Q 928 -128 1133 580 
Q 1338 1288 1338 2009 
Q 1338 2731 1133 3434 
Q 928 4138 513 4856 
z
" transform="scale(0.015625)"/>
      </defs>
      <use xlink:href="#DejaVuSans-76"/>
      <use xlink:href="#DejaVuSans-61" transform="translate(59.179688 0)"/>
      <use xlink:href="#DejaVuSans-6c" transform="translate(120.458984 0)"/>
      <use xlink:href="#DejaVuSans-69" transform="translate(148.242188 0)"/>
      <use xlink:href="#DejaVuSans-64" transform="translate(176.025391 0)"/>
      <use xlink:href="#DejaVuSans-61" transform="translate(239.501953 0)"/>
      <use xlink:href="#DejaVuSans-74" transform="translate(300.78125 0)"/>
      <use xlink:href="#DejaVuSans-69" transform="translate(339.990234 0)"/>
      <use xlink:href="#DejaVuSans-6f" transform="translate(367.773438 0)"/>
      <use xlink:href="#DejaVuSans-6e" transform="translate(428.955078 0)"/>
      <use xlink:href="#DejaVuSans-20" transform="translate(492.333984 0)"/>
      <use xlink:href="#DejaVuSans-4e" transform="translate(524.121094 0)"/>
      <use xlink:href="#DejaVuSans-4c" transform="translate(598.925781 0)"/>
      <use xlink:href="#DejaVuSans-4c" transform="translate(654.638672 0)"/>
      <use xlink:href="#DejaVuSans-20" transform="translate(710.351562 0)"/>
      <use xlink:href="#DejaVuSans-28" transform="translate(742.138672 0)"/>
      <use xlink:href="#DejaVuSans-6e" transform="translate(781.152344 0)"/>
      <use xlink:href="#DejaVuSans-61" transform="translate(844.53125 0)"/>
      <use xlink:href="#DejaVuSans-74" transform="translate(905.810547 0)"/>
      <use xlink:href="#DejaVuSans-73" transform="translate(945.019531 0)"/>
      <use xlink:href="#DejaVuSans-29" transform="translate(997.119141 0)"/>
     </g>
    </g>
   </g>
   <g id="line2d_24">
    <path d="M 64.131458 -1 
L 64.131982 -0.998838 
L 65.238029 -0.355679 
L 66.344076 2.742015 
L 68.55617 6.096882 
L 69.662218 8.222252 
L 70.768265 9.600093 
L 71.874312 10.787108 
L 74.086406 14.47178 
L 75.192454 16.582353 
L 76.298501 18.333037 
L 77.404548 19.127087 
L 78.510595 21.84642 
L 79.616642 21.582232 
L 80.722689 24.223698 
L 81.828737 26.150544 
L 82.934784 26.906875 
L 84.040831 28.819787 
L 85.146878 28.870451 
L 86.252925 31.398909 
L 87.358972 33.279354 
L 88.46502 34.418182 
L 89.571067 35.857347 
L 90.677114 36.554454 
L 91.783161 37.095877 
L 92.889208 38.624089 
L 93.995255 39.691443 
L 95.101303 40.4022 
L 96.20735 42.076316 
L 98.419444 44.314117 
L 99.525491 44.407737 
L 100.631538 46.521343 
L 101.737586 46.985905 
L 102.843633 48.118547 
L 103.94968 48.796395 
L 105.055727 50.540228 
L 106.161774 50.543681 
L 107.267822 52.078305 
L 108.373869 52.053293 
L 109.479916 53.605421 
L 110.585963 52.866378 
L 111.69201 54.079223 
L 112.798057 55.489546 
L 113.904105 55.477107 
L 115.010152 56.821019 
L 116.116199 57.202635 
L 118.328293 58.283947 
L 119.43434 59.054742 
L 120.540388 60.19247 
L 121.646435 60.213135 
L 123.858529 62.49702 
L 127.176671 63.809295 
L 128.282718 64.652294 
L 130.494812 65.608412 
L 131.600859 67.135061 
L 132.706906 67.472585 
L 133.812954 68.293749 
L 134.919001 68.704013 
L 136.025048 68.936716 
L 137.131095 69.411866 
L 138.237142 70.217006 
L 139.34319 70.834594 
L 140.449237 70.920903 
L 141.555284 71.658894 
L 142.661331 71.561508 
L 143.767378 71.71872 
L 144.873425 72.608776 
L 145.979473 73.699823 
L 147.08552 74.211836 
L 148.191567 74.369681 
L 149.297614 74.661943 
L 151.509708 76.352373 
L 152.615756 76.259834 
L 153.721803 77.16956 
L 154.82785 77.470444 
L 155.933897 77.20014 
L 157.039944 78.541234 
L 158.145991 79.087879 
L 159.252039 78.644002 
L 160.358086 78.711101 
L 161.464133 80.17379 
L 162.57018 80.477292 
L 163.676227 80.346879 
L 164.782274 80.418791 
L 165.888322 81.995477 
L 166.994369 82.13642 
L 168.100416 82.081771 
L 169.206463 83.859605 
L 170.31251 83.440449 
L 171.418558 84.114845 
L 173.630652 85.036393 
L 174.736699 85.828629 
L 175.842746 86.237983 
L 176.948793 86.432798 
L 179.160888 86.37798 
L 180.266935 87.527552 
L 181.372982 88.437174 
L 182.479029 88.35432 
L 183.585076 88.988003 
L 184.691124 90.275415 
L 185.797171 88.662489 
L 186.903218 88.803597 
L 188.009265 90.380005 
L 189.115312 90.375593 
L 190.221359 90.952808 
L 192.433454 90.948611 
L 193.539501 91.685522 
L 194.645548 91.142463 
L 195.751595 93.017873 
L 196.857642 92.285369 
L 197.96369 92.518759 
L 199.069737 93.414245 
L 200.175784 94.89939 
L 201.281831 94.332405 
L 202.387878 94.4778 
L 203.493926 95.614121 
L 204.599973 94.681207 
L 205.70602 96.941462 
L 206.812067 96.150536 
L 207.918114 97.155735 
L 209.024161 96.247854 
L 210.130209 98.217563 
L 211.236256 97.820375 
L 212.342303 97.689108 
L 213.44835 98.477327 
L 214.554397 98.226284 
L 215.660444 98.198506 
L 217.872539 99.959171 
L 218.978586 99.337531 
L 220.084633 99.366973 
L 221.19068 101.113576 
L 222.296727 100.419934 
L 223.402775 101.329343 
L 223.402775 101.329343 
" clip-path="url(#p9e7a15e215)" style="fill: none; stroke: #2a78d6; stroke-width: 1.2; stroke-linecap: square"/>
   </g>
   <g id="line2d_25">
    <path d="M 61.991391 -1 
L 63.025935 2.404247 
L 64.131982 4.908606 
L 65.238029 7.950082 
L 66.344076 10.552869 
L 67.450123 10.63603 
L 69.662218 16.803231 
L 70.768265 19.336399 
L 71.874312 18.784767 
L 72.980359 22.188625 
L 74.086406 23.936883 
L 75.192454 26.466754 
L 77.404548 29.25017 
L 78.510595 30.637 
L 79.616642 33.028411 
L 80.722689 33.949083 
L 81.828737 35.954339 
L 82.934784 36.801249 
L 84.040831 40.254732 
L 85.146878 40.822923 
L 87.358972 43.16151 
L 88.46502 45.83417 
L 89.571067 46.731252 
L 90.677114 48.616762 
L 91.783161 48.376746 
L 92.889208 49.315146 
L 93.995255 52.00394 
L 95.101303 52.563601 
L 96.20735 54.897451 
L 97.313397 54.443149 
L 98.419444 54.938222 
L 99.525491 57.166871 
L 100.631538 59.05335 
L 101.737586 57.650084 
L 102.843633 59.719363 
L 103.94968 60.069797 
L 105.055727 61.294372 
L 106.161774 62.945858 
L 108.373869 64.1238 
L 109.479916 65.126741 
L 110.585963 66.50965 
L 111.69201 66.601888 
L 112.798057 68.303833 
L 113.904105 67.720989 
L 115.010152 69.241504 
L 116.116199 70.493018 
L 117.222246 70.227139 
L 118.328293 72.545361 
L 119.43434 72.062213 
L 120.540388 72.994646 
L 121.646435 73.058138 
L 123.858529 75.546845 
L 124.964576 75.799951 
L 126.070623 76.655673 
L 127.176671 78.541896 
L 128.282718 79.104241 
L 129.388765 78.98284 
L 130.494812 79.188042 
L 131.600859 79.530282 
L 132.706906 80.784438 
L 133.812954 81.177001 
L 134.919001 82.351753 
L 136.025048 81.572549 
L 137.131095 83.497655 
L 138.237142 82.7562 
L 139.34319 84.6347 
L 140.449237 85.283147 
L 141.555284 84.541304 
L 142.661331 84.947818 
L 143.767378 87.028186 
L 144.873425 86.014299 
L 145.979473 87.444709 
L 147.08552 87.506815 
L 148.191567 87.031127 
L 149.297614 88.408381 
L 150.403661 88.755895 
L 151.509708 89.672798 
L 152.615756 90.747178 
L 154.82785 91.30067 
L 155.933897 92.560048 
L 157.039944 92.627052 
L 158.145991 93.422963 
L 159.252039 93.070641 
L 160.358086 95.012675 
L 161.464133 94.225741 
L 162.57018 95.158797 
L 163.676227 94.380958 
L 165.888322 97.498078 
L 166.994369 96.3757 
L 168.100416 98.253088 
L 169.206463 98.515443 
L 170.31251 98.295526 
L 171.418558 99.359257 
L 172.524605 99.247201 
L 173.630652 100.041746 
L 174.736699 100.17014 
L 175.842746 100.540764 
L 176.948793 101.950752 
L 178.054841 101.280388 
L 179.160888 101.126793 
L 180.266935 102.465523 
L 181.372982 103.329817 
L 182.479029 102.804417 
L 183.585076 102.976083 
L 184.691124 102.95216 
L 185.797171 104.556085 
L 186.903218 104.187152 
L 188.009265 104.337763 
L 189.115312 105.537051 
L 190.221359 105.398923 
L 191.327407 106.967447 
L 192.433454 106.279623 
L 193.539501 107.631018 
L 194.645548 106.915879 
L 195.751595 107.763464 
L 196.857642 106.92077 
L 197.96369 106.708522 
L 199.069737 109.579307 
L 200.175784 110.703669 
L 201.281831 110.172577 
L 202.387878 110.911892 
L 203.493926 110.859619 
L 204.599973 110.654269 
L 205.70602 112.178731 
L 206.812067 112.092559 
L 207.918114 112.734083 
L 209.024161 112.194163 
L 210.130209 112.607362 
L 211.236256 113.206142 
L 212.342303 111.824934 
L 213.44835 113.569715 
L 214.554397 114.44289 
L 215.660444 114.820777 
L 216.766492 114.697874 
L 217.872539 115.289364 
L 218.978586 114.850745 
L 220.084633 116.256942 
L 221.19068 115.816648 
L 222.296727 116.284704 
L 223.402775 116.26853 
L 223.402775 116.26853 
" clip-path="url(#p9e7a15e215)" style="fill: none; stroke: #008300; stroke-width: 1.2; stroke-linecap: square"/>
   </g>
   <g id="line2d_26">
    <path d="M 71.20781 -1 
L 71.874312 -0.526957 
L 72.980359 2.119901 
L 74.086406 4.134267 
L 75.192454 3.944697 
L 76.298501 7.37717 
L 77.404548 6.58606 
L 78.510595 10.438865 
L 79.616642 8.362976 
L 80.722689 12.693983 
L 81.828737 14.021837 
L 82.934784 13.503754 
L 84.040831 16.59427 
L 85.146878 15.001389 
L 86.252925 18.753839 
L 87.358972 20.857578 
L 88.46502 21.124072 
L 89.571067 22.282653 
L 90.677114 23.991428 
L 91.783161 24.837053 
L 92.889208 23.739422 
L 93.995255 26.956976 
L 95.101303 27.78839 
L 96.20735 29.430999 
L 97.313397 31.390361 
L 98.419444 31.351542 
L 100.631538 34.487421 
L 101.737586 34.546469 
L 102.843633 35.867526 
L 103.94968 36.979959 
L 105.055727 38.851795 
L 106.161774 37.670618 
L 107.267822 38.686428 
L 108.373869 40.373596 
L 109.479916 40.956482 
L 110.585963 42.675139 
L 111.69201 43.571681 
L 112.798057 44.988784 
L 113.904105 45.217734 
L 115.010152 47.100868 
L 116.116199 48.502296 
L 117.222246 48.625353 
L 118.328293 49.462103 
L 119.43434 50.540472 
L 120.540388 52.420779 
L 121.646435 51.896562 
L 122.752482 52.973823 
L 123.858529 53.709914 
L 124.964576 55.226366 
L 127.176671 56.896084 
L 128.282718 57.111617 
L 129.388765 58.165569 
L 130.494812 58.321905 
L 131.600859 59.235284 
L 132.706906 60.613369 
L 133.812954 61.05639 
L 134.919001 62.6366 
L 136.025048 62.522013 
L 137.131095 63.574 
L 138.237142 63.393954 
L 140.449237 65.108591 
L 141.555284 66.40124 
L 142.661331 65.996626 
L 143.767378 66.656511 
L 144.873425 67.115108 
L 145.979473 67.839029 
L 147.08552 69.076585 
L 148.191567 67.979753 
L 149.297614 69.336078 
L 151.509708 70.962497 
L 152.615756 71.383314 
L 153.721803 72.391989 
L 154.82785 72.678321 
L 155.933897 72.246988 
L 157.039944 73.568883 
L 158.145991 73.776172 
L 159.252039 75.129809 
L 160.358086 73.74635 
L 161.464133 75.774905 
L 162.57018 76.116786 
L 163.676227 76.271851 
L 164.782274 77.131368 
L 165.888322 77.117548 
L 166.994369 78.070554 
L 168.100416 78.392879 
L 169.206463 79.470201 
L 170.31251 79.866476 
L 171.418558 79.759093 
L 172.524605 80.14253 
L 173.630652 81.135444 
L 174.736699 80.93772 
L 175.842746 81.159947 
L 176.948793 81.223365 
L 178.054841 82.294278 
L 179.160888 82.141494 
L 180.266935 83.448501 
L 181.372982 83.508969 
L 182.479029 82.988973 
L 183.585076 84.27039 
L 184.691124 84.995372 
L 185.797171 85.098338 
L 186.903218 84.619518 
L 188.009265 86.634595 
L 189.115312 86.165902 
L 190.221359 86.963738 
L 191.327407 87.034936 
L 192.433454 86.908985 
L 193.539501 88.321977 
L 194.645548 86.760396 
L 195.751595 89.10219 
L 196.857642 89.287337 
L 197.96369 90.084001 
L 199.069737 90.281636 
L 200.175784 90.208293 
L 201.281831 89.881777 
L 202.387878 91.395369 
L 203.493926 91.26762 
L 204.599973 91.359468 
L 205.70602 92.490589 
L 206.812067 92.938128 
L 207.918114 92.013014 
L 209.024161 93.189037 
L 210.130209 93.609188 
L 211.236256 94.366964 
L 212.342303 94.600598 
L 213.44835 95.132907 
L 214.554397 94.262937 
L 215.660444 93.884535 
L 216.766492 95.641177 
L 217.872539 95.279611 
L 218.978586 95.184689 
L 220.084633 96.565563 
L 221.19068 97.54235 
L 222.296727 96.638718 
L 223.402775 96.766715 
L 223.402775 96.766715 
" clip-path="url(#p9e7a15e215)" style="fill: none; stroke: #e87ba4; stroke-width: 1.2; stroke-linecap: square"/>
   </g>
   <g id="line2d_27">
    <path d="M 72.131106 -1 
L 72.980359 2.249861 
L 74.086406 1.169587 
L 75.192454 5.675567 
L 76.298501 7.836875 
L 77.404548 9.555829 
L 78.510595 10.803655 
L 79.616642 13.980339 
L 80.722689 12.739135 
L 81.828737 16.147744 
L 82.934784 17.320832 
L 84.040831 21.036366 
L 85.146878 21.518553 
L 86.252925 23.311098 
L 87.358972 23.195488 
L 89.571067 29.705366 
L 90.677114 28.759 
L 91.783161 29.623002 
L 92.889208 31.647697 
L 93.995255 34.763345 
L 95.101303 34.813616 
L 96.20735 37.385451 
L 98.419444 39.24106 
L 99.525491 41.36533 
L 101.737586 42.34045 
L 102.843633 43.838966 
L 103.94968 44.940804 
L 105.055727 45.427443 
L 106.161774 47.960717 
L 107.267822 47.772662 
L 109.479916 50.518464 
L 110.585963 52.040829 
L 111.69201 52.559366 
L 112.798057 54.012232 
L 113.904105 53.765515 
L 116.116199 56.465173 
L 117.222246 57.285074 
L 118.328293 58.511261 
L 119.43434 59.127247 
L 120.540388 58.524328 
L 121.646435 60.476237 
L 124.964576 62.498882 
L 126.070623 63.709825 
L 127.176671 64.168749 
L 128.282718 65.640457 
L 129.388765 66.122695 
L 130.494812 67.036654 
L 131.600859 67.433178 
L 132.706906 66.909824 
L 133.812954 68.741797 
L 134.919001 70.044847 
L 136.025048 69.562705 
L 137.131095 71.047385 
L 138.237142 70.458943 
L 139.34319 71.575591 
L 140.449237 73.153859 
L 141.555284 71.847723 
L 142.661331 72.771769 
L 143.767378 74.387958 
L 144.873425 74.667867 
L 145.979473 75.594697 
L 147.08552 74.926175 
L 148.191567 76.94317 
L 149.297614 77.27755 
L 150.403661 76.626641 
L 151.509708 77.593165 
L 152.615756 79.375819 
L 153.721803 79.245343 
L 155.933897 80.552852 
L 157.039944 80.053263 
L 158.145991 82.234626 
L 159.252039 81.613153 
L 160.358086 82.368852 
L 161.464133 82.030507 
L 162.57018 83.346881 
L 163.676227 84.128822 
L 164.782274 84.210485 
L 165.888322 85.096513 
L 166.994369 83.998911 
L 168.100416 85.891211 
L 169.206463 86.350761 
L 170.31251 86.373541 
L 171.418558 86.694995 
L 172.524605 86.703172 
L 173.630652 87.233464 
L 174.736699 88.438433 
L 175.842746 88.600775 
L 176.948793 89.858215 
L 178.054841 88.244793 
L 179.160888 88.896709 
L 181.372982 91.515405 
L 182.479029 90.574305 
L 183.585076 90.551304 
L 184.691124 90.732463 
L 185.797171 92.489358 
L 186.903218 92.996534 
L 188.009265 92.875907 
L 189.115312 93.01395 
L 190.221359 93.905047 
L 191.327407 93.760707 
L 192.433454 94.832874 
L 193.539501 94.359595 
L 194.645548 94.661179 
L 195.751595 94.423055 
L 196.857642 95.215759 
L 197.96369 95.053427 
L 199.069737 96.634917 
L 200.175784 97.927456 
L 201.281831 97.247946 
L 203.493926 98.183617 
L 204.599973 95.727992 
L 205.70602 99.958547 
L 206.812067 100.465095 
L 207.918114 99.614881 
L 209.024161 100.092839 
L 210.130209 100.224722 
L 211.236256 100.006789 
L 212.342303 100.649139 
L 213.44835 100.87809 
L 214.554397 101.520727 
L 215.660444 102.788171 
L 216.766492 102.838751 
L 217.872539 102.52681 
L 218.978586 102.88208 
L 220.084633 103.969338 
L 221.19068 102.285908 
L 222.296727 103.720555 
L 223.402775 103.520855 
L 223.402775 103.520855 
" clip-path="url(#p9e7a15e215)" style="fill: none; stroke: #eda100; stroke-width: 1.2; stroke-linecap: square"/>
   </g>
   <g id="patch_3">
    <path d="M 36.480803 128.119582 
L 36.480803 17.338828 
" style="fill: none; stroke: #999999; stroke-width: 0.6; stroke-linejoin: miter; stroke-linecap: square"/>
   </g>
   <g id="patch_4">
    <path d="M 36.480802 128.119582 
L 226.720916 128.119582 
" style="fill: none; stroke: #999999; stroke-width: 0.6; stroke-linejoin: miter; stroke-linecap: square"/>
   </g>
   <g id="text_19">
    <!-- (a)  Validation NLL, seed 1234 -->
    <g style="fill: #222222" transform="translate(36.480803 14.338828) scale(0.075 -0.075)">
     <defs>
      <path id="DejaVuSans-56" d="M 1831 0 
L 50 4666 
L 709 4666 
L 2188 738 
L 3669 4666 
L 4325 4666 
L 2547 0 
L 1831 0 
z
" transform="scale(0.015625)"/>
      <path id="DejaVuSans-2c" d="M 750 794 
L 1409 794 
L 1409 256 
L 897 -744 
L 494 -744 
L 750 256 
L 750 794 
z
" transform="scale(0.015625)"/>
      <path id="DejaVuSans-33" d="M 2597 2516 
Q 3050 2419 3304 2112 
Q 3559 1806 3559 1356 
Q 3559 666 3084 287 
Q 2609 -91 1734 -91 
Q 1441 -91 1130 -33 
Q 819 25 488 141 
L 488 750 
Q 750 597 1062 519 
Q 1375 441 1716 441 
Q 2309 441 2620 675 
Q 2931 909 2931 1356 
Q 2931 1769 2642 2001 
Q 2353 2234 1838 2234 
L 1294 2234 
L 1294 2753 
L 1863 2753 
Q 2328 2753 2575 2939 
Q 2822 3125 2822 3475 
Q 2822 3834 2567 4026 
Q 2313 4219 1838 4219 
Q 1578 4219 1281 4162 
Q 984 4106 628 3988 
L 628 4550 
Q 988 4650 1302 4700 
Q 1616 4750 1894 4750 
Q 2613 4750 3031 4423 
Q 3450 4097 3450 3541 
Q 3450 3153 3228 2886 
Q 3006 2619 2597 2516 
z
" transform="scale(0.015625)"/>
     </defs>
     <use xlink:href="#DejaVuSans-28"/>
     <use xlink:href="#DejaVuSans-61" transform="translate(39.013672 0)"/>
     <use xlink:href="#DejaVuSans-29" transform="translate(100.292969 0)"/>
     <use xlink:href="#DejaVuSans-20" transform="translate(139.306641 0)"/>
     <use xlink:href="#DejaVuSans-20" transform="translate(171.09375 0)"/>
     <use xlink:href="#DejaVuSans-56" transform="translate(202.880859 0)"/>
     <use xlink:href="#DejaVuSans-61" transform="translate(263.539062 0)"/>
     <use xlink:href="#DejaVuSans-6c" transform="translate(324.818359 0)"/>
     <use xlink:href="#DejaVuSans-69" transform="translate(352.601562 0)"/>
     <use xlink:href="#DejaVuSans-64" transform="translate(380.384766 0)"/>
     <use xlink:href="#DejaVuSans-61" transform="translate(443.861328 0)"/>
     <use xlink:href="#DejaVuSans-74" transform="translate(505.140625 0)"/>
     <use xlink:href="#DejaVuSans-69" transform="translate(544.349609 0)"/>
     <use xlink:href="#DejaVuSans-6f" transform="translate(572.132812 0)"/>
     <use xlink:href="#DejaVuSans-6e" transform="translate(633.314453 0)"/>
     <use xlink:href="#DejaVuSans-20" transform="translate(696.693359 0)"/>
     <use xlink:href="#DejaVuSans-4e" transform="translate(728.480469 0)"/>
     <use xlink:href="#DejaVuSans-4c" transform="translate(803.285156 0)"/>
     <use xlink:href="#DejaVuSans-4c" transform="translate(858.998047 0)"/>
     <use xlink:href="#DejaVuSans-2c" transform="translate(914.710938 0)"/>
     <use xlink:href="#DejaVuSans-20" transform="translate(946.498047 0)"/>
     <use xlink:href="#DejaVuSans-73" transform="translate(978.285156 0)"/>
     <use xlink:href="#DejaVuSans-65" transform="translate(1030.384766 0)"/>
     <use xlink:href="#DejaVuSans-65" transform="translate(1091.908203 0)"/>
     <use xlink:href="#DejaVuSans-64" transform="translate(1153.431641 0)"/>
     <use xlink:href="#DejaVuSans-20" transform="translate(1216.908203 0)"/>
     <use xlink:href="#DejaVuSans-31" transform="translate(1248.695312 0)"/>
     <use xlink:href="#DejaVuSans-32" transform="translate(1312.318359 0)"/>
     <use xlink:href="#DejaVuSans-33" transform="translate(1375.941406 0)"/>
     <use xlink:href="#DejaVuSans-34" transform="translate(1439.564453 0)"/>
    </g>
   </g>
   <g id="legend_1">
    <g id="line2d_28">
     <path d="M 177.47976 25.983797 
L 182.09976 25.983797 
L 186.71976 25.983797 
" style="fill: none; stroke: #2a78d6; stroke-width: 1.2; stroke-linecap: square"/>
    </g>
    <g id="text_20">
     <!-- baseline -->
     <g transform="translate(191.99976 28.293797) scale(0.066 -0.066)">
      <defs>
       <path id="DejaVuSans-62" d="M 3116 1747 
Q 3116 2381 2855 2742 
Q 2594 3103 2138 3103 
Q 1681 3103 1420 2742 
Q 1159 2381 1159 1747 
Q 1159 1113 1420 752 
Q 1681 391 2138 391 
Q 2594 391 2855 752 
Q 3116 1113 3116 1747 
z
M 1159 2969 
Q 1341 3281 1617 3432 
Q 1894 3584 2278 3584 
Q 2916 3584 3314 3078 
Q 3713 2572 3713 1747 
Q 3713 922 3314 415 
Q 2916 -91 2278 -91 
Q 1894 -91 1617 61 
Q 1341 213 1159 525 
L 1159 0 
L 581 0 
L 581 4863 
L 1159 4863 
L 1159 2969 
z
" transform="scale(0.015625)"/>
      </defs>
      <use xlink:href="#DejaVuSans-62"/>
      <use xlink:href="#DejaVuSans-61" transform="translate(63.476562 0)"/>
      <use xlink:href="#DejaVuSans-73" transform="translate(124.755859 0)"/>
      <use xlink:href="#DejaVuSans-65" transform="translate(176.855469 0)"/>
      <use xlink:href="#DejaVuSans-6c" transform="translate(238.378906 0)"/>
      <use xlink:href="#DejaVuSans-69" transform="translate(266.162109 0)"/>
      <use xlink:href="#DejaVuSans-6e" transform="translate(293.945312 0)"/>
      <use xlink:href="#DejaVuSans-65" transform="translate(357.324219 0)"/>
     </g>
    </g>
    <g id="line2d_29">
     <path d="M 177.47976 34.351359 
L 182.09976 34.351359 
L 186.71976 34.351359 
" style="fill: none; stroke: #008300; stroke-width: 1.2; stroke-linecap: square"/>
    </g>
    <g id="text_21">
     <!-- dynedge -->
     <g transform="translate(191.99976 36.661359) scale(0.066 -0.066)">
      <defs>
       <path id="DejaVuSans-79" d="M 2059 -325 
Q 1816 -950 1584 -1140 
Q 1353 -1331 966 -1331 
L 506 -1331 
L 506 -850 
L 844 -850 
Q 1081 -850 1212 -737 
Q 1344 -625 1503 -206 
L 1606 56 
L 191 3500 
L 800 3500 
L 1894 763 
L 2988 3500 
L 3597 3500 
L 2059 -325 
z
" transform="scale(0.015625)"/>
       <path id="DejaVuSans-67" d="M 2906 1791 
Q 2906 2416 2648 2759 
Q 2391 3103 1925 3103 
Q 1463 3103 1205 2759 
Q 947 2416 947 1791 
Q 947 1169 1205 825 
Q 1463 481 1925 481 
Q 2391 481 2648 825 
Q 2906 1169 2906 1791 
z
M 3481 434 
Q 3481 -459 3084 -895 
Q 2688 -1331 1869 -1331 
Q 1566 -1331 1297 -1286 
Q 1028 -1241 775 -1147 
L 775 -588 
Q 1028 -725 1275 -790 
Q 1522 -856 1778 -856 
Q 2344 -856 2625 -561 
Q 2906 -266 2906 331 
L 2906 616 
Q 2728 306 2450 153 
Q 2172 0 1784 0 
Q 1141 0 747 490 
Q 353 981 353 1791 
Q 353 2603 747 3093 
Q 1141 3584 1784 3584 
Q 2172 3584 2450 3431 
Q 2728 3278 2906 2969 
L 2906 3500 
L 3481 3500 
L 3481 434 
z
" transform="scale(0.015625)"/>
      </defs>
      <use xlink:href="#DejaVuSans-64"/>
      <use xlink:href="#DejaVuSans-79" transform="translate(63.476562 0)"/>
      <use xlink:href="#DejaVuSans-6e" transform="translate(122.65625 0)"/>
      <use xlink:href="#DejaVuSans-65" transform="translate(186.035156 0)"/>
      <use xlink:href="#DejaVuSans-64" transform="translate(247.558594 0)"/>
      <use xlink:href="#DejaVuSans-67" transform="translate(311.035156 0)"/>
      <use xlink:href="#DejaVuSans-65" transform="translate(374.511719 0)"/>
     </g>
    </g>
    <g id="line2d_30">
     <path d="M 177.47976 42.718922 
L 182.09976 42.718922 
L 186.71976 42.718922 
" style="fill: none; stroke: #e87ba4; stroke-width: 1.2; stroke-linecap: square"/>
    </g>
    <g id="text_22">
     <!-- full-topo -->
     <g transform="translate(191.99976 45.028922) scale(0.066 -0.066)">
      <defs>
       <path id="DejaVuSans-66" d="M 2375 4863 
L 2375 4384 
L 1825 4384 
Q 1516 4384 1395 4259 
Q 1275 4134 1275 3809 
L 1275 3500 
L 2222 3500 
L 2222 3053 
L 1275 3053 
L 1275 0 
L 697 0 
L 697 3053 
L 147 3053 
L 147 3500 
L 697 3500 
L 697 3744 
Q 697 4328 969 4595 
Q 1241 4863 1831 4863 
L 2375 4863 
z
" transform="scale(0.015625)"/>
       <path id="DejaVuSans-75" d="M 544 1381 
L 544 3500 
L 1119 3500 
L 1119 1403 
Q 1119 906 1312 657 
Q 1506 409 1894 409 
Q 2359 409 2629 706 
Q 2900 1003 2900 1516 
L 2900 3500 
L 3475 3500 
L 3475 0 
L 2900 0 
L 2900 538 
Q 2691 219 2414 64 
Q 2138 -91 1772 -91 
Q 1169 -91 856 284 
Q 544 659 544 1381 
z
M 1991 3584 
L 1991 3584 
z
" transform="scale(0.015625)"/>
       <path id="DejaVuSans-2d" d="M 313 2009 
L 1997 2009 
L 1997 1497 
L 313 1497 
L 313 2009 
z
" transform="scale(0.015625)"/>
      </defs>
      <use xlink:href="#DejaVuSans-66"/>
      <use xlink:href="#DejaVuSans-75" transform="translate(35.205078 0)"/>
      <use xlink:href="#DejaVuSans-6c" transform="translate(98.583984 0)"/>
      <use xlink:href="#DejaVuSans-6c" transform="translate(126.367188 0)"/>
      <use xlink:href="#DejaVuSans-2d" transform="translate(154.150391 0)"/>
      <use xlink:href="#DejaVuSans-74" transform="translate(190.234375 0)"/>
      <use xlink:href="#DejaVuSans-6f" transform="translate(229.443359 0)"/>
      <use xlink:href="#DejaVuSans-70" transform="translate(290.625 0)"/>
      <use xlink:href="#DejaVuSans-6f" transform="translate(354.101562 0)"/>
     </g>
    </g>
    <g id="line2d_31">
     <path d="M 177.47976 51.086484 
L 182.09976 51.086484 
L 186.71976 51.086484 
" style="fill: none; stroke: #eda100; stroke-width: 1.2; stroke-linecap: square"/>
    </g>
    <g id="text_23">
     <!-- full+dyn -->
     <g transform="translate(191.99976 53.396484) scale(0.066 -0.066)">
      <defs>
       <path id="DejaVuSans-2b" d="M 2944 4013 
L 2944 2272 
L 4684 2272 
L 4684 1741 
L 2944 1741 
L 2944 0 
L 2419 0 
L 2419 1741 
L 678 1741 
L 678 2272 
L 2419 2272 
L 2419 4013 
L 2944 4013 
z
" transform="scale(0.015625)"/>
      </defs>
      <use xlink:href="#DejaVuSans-66"/>
      <use xlink:href="#DejaVuSans-75" transform="translate(35.205078 0)"/>
      <use xlink:href="#DejaVuSans-6c" transform="translate(98.583984 0)"/>
      <use xlink:href="#DejaVuSans-6c" transform="translate(126.367188 0)"/>
      <use xlink:href="#DejaVuSans-2b" transform="translate(154.150391 0)"/>
      <use xlink:href="#DejaVuSans-64" transform="translate(237.939453 0)"/>
      <use xlink:href="#DejaVuSans-79" transform="translate(301.416016 0)"/>
      <use xlink:href="#DejaVuSans-6e" transform="translate(360.595703 0)"/>
     </g>
    </g>
   </g>
  </g>
  <g id="axes_2">
   <g id="patch_5">
    <path d="M 36.480803 273.978875 
L 226.720916 273.978875 
L 226.720916 177.647785 
L 36.480803 177.647785 
L 36.480803 273.978875 
z
" style="fill: none"/>
   </g>
   <g id="matplotlib.axis_3">
    <g id="xtick_10">
     <g id="line2d_32">
      <g>
       <use xlink:href="#m5732966ab0" x="91.550309" y="273.978875" style="fill: #555555; stroke: #555555; stroke-width: 0.6"/>
      </g>
     </g>
     <g id="text_24">
      <!-- baseline -->
      <g style="fill: #555555" transform="translate(77.30909 285.145812) scale(0.068 -0.068)">
       <use xlink:href="#DejaVuSans-62"/>
       <use xlink:href="#DejaVuSans-61" transform="translate(63.476562 0)"/>
       <use xlink:href="#DejaVuSans-73" transform="translate(124.755859 0)"/>
       <use xlink:href="#DejaVuSans-65" transform="translate(176.855469 0)"/>
       <use xlink:href="#DejaVuSans-6c" transform="translate(238.378906 0)"/>
       <use xlink:href="#DejaVuSans-69" transform="translate(266.162109 0)"/>
       <use xlink:href="#DejaVuSans-6e" transform="translate(293.945312 0)"/>
       <use xlink:href="#DejaVuSans-65" transform="translate(357.324219 0)"/>
      </g>
     </g>
    </g>
    <g id="xtick_11">
     <g id="line2d_33">
      <g>
       <use xlink:href="#m5732966ab0" x="191.676685" y="273.978875" style="fill: #555555; stroke: #555555; stroke-width: 0.6"/>
      </g>
     </g>
     <g id="text_25">
      <!-- dynamic edges -->
      <g style="fill: #555555" transform="translate(165.788872 285.145812) scale(0.068 -0.068)">
       <defs>
        <path id="DejaVuSans-6d" d="M 3328 2828 
Q 3544 3216 3844 3400 
Q 4144 3584 4550 3584 
Q 5097 3584 5394 3201 
Q 5691 2819 5691 2113 
L 5691 0 
L 5113 0 
L 5113 2094 
Q 5113 2597 4934 2840 
Q 4756 3084 4391 3084 
Q 3944 3084 3684 2787 
Q 3425 2491 3425 1978 
L 3425 0 
L 2847 0 
L 2847 2094 
Q 2847 2600 2669 2842 
Q 2491 3084 2119 3084 
Q 1678 3084 1418 2786 
Q 1159 2488 1159 1978 
L 1159 0 
L 581 0 
L 581 3500 
L 1159 3500 
L 1159 2956 
Q 1356 3278 1631 3431 
Q 1906 3584 2284 3584 
Q 2666 3584 2933 3390 
Q 3200 3197 3328 2828 
z
" transform="scale(0.015625)"/>
       </defs>
       <use xlink:href="#DejaVuSans-64"/>
       <use xlink:href="#DejaVuSans-79" transform="translate(63.476562 0)"/>
       <use xlink:href="#DejaVuSans-6e" transform="translate(122.65625 0)"/>
       <use xlink:href="#DejaVuSans-61" transform="translate(186.035156 0)"/>
       <use xlink:href="#DejaVuSans-6d" transform="translate(247.314453 0)"/>
       <use xlink:href="#DejaVuSans-69" transform="translate(344.726562 0)"/>
       <use xlink:href="#DejaVuSans-63" transform="translate(372.509766 0)"/>
       <use xlink:href="#DejaVuSans-20" transform="translate(427.490234 0)"/>
       <use xlink:href="#DejaVuSans-65" transform="translate(459.277344 0)"/>
       <use xlink:href="#DejaVuSans-64" transform="translate(520.800781 0)"/>
       <use xlink:href="#DejaVuSans-67" transform="translate(584.277344 0)"/>
       <use xlink:href="#DejaVuSans-65" transform="translate(647.753906 0)"/>
       <use xlink:href="#DejaVuSans-73" transform="translate(709.277344 0)"/>
      </g>
     </g>
    </g>
   </g>
   <g id="matplotlib.axis_4">
    <g id="ytick_8">
     <g id="line2d_34">
      <path d="M 36.480803 264.832303 
L 226.720916 264.832303 
" clip-path="url(#p886b842a9c)" style="fill: none; stroke: #dddddd; stroke-width: 0.5; stroke-linecap: square"/>
     </g>
     <g id="line2d_35">
      <g>
       <use xlink:href="#m8a23b9f10e" x="36.480803" y="264.832303" style="fill: #555555; stroke: #555555; stroke-width: 0.6"/>
      </g>
     </g>
     <g id="text_26">
      <!-- −4 -->
      <g style="fill: #555555" transform="translate(20.456115 267.415772) scale(0.068 -0.068)">
       <use xlink:href="#DejaVuSans-2212"/>
       <use xlink:href="#DejaVuSans-34" transform="translate(83.789062 0)"/>
      </g>
     </g>
    </g>
    <g id="ytick_9">
     <g id="line2d_36">
      <path d="M 36.480803 243.483971 
L 226.720916 243.483971 
" clip-path="url(#p886b842a9c)" style="fill: none; stroke: #dddddd; stroke-width: 0.5; stroke-linecap: square"/>
     </g>
     <g id="line2d_37">
      <g>
       <use xlink:href="#m8a23b9f10e" x="36.480803" y="243.483971" style="fill: #555555; stroke: #555555; stroke-width: 0.6"/>
      </g>
     </g>
     <g id="text_27">
      <!-- −3 -->
      <g style="fill: #555555" transform="translate(20.456115 246.06744) scale(0.068 -0.068)">
       <use xlink:href="#DejaVuSans-2212"/>
       <use xlink:href="#DejaVuSans-33" transform="translate(83.789062 0)"/>
      </g>
     </g>
    </g>
    <g id="ytick_10">
     <g id="line2d_38">
      <path d="M 36.480803 222.13564 
L 226.720916 222.13564 
" clip-path="url(#p886b842a9c)" style="fill: none; stroke: #dddddd; stroke-width: 0.5; stroke-linecap: square"/>
     </g>
     <g id="line2d_39">
      <g>
       <use xlink:href="#m8a23b9f10e" x="36.480803" y="222.13564" style="fill: #555555; stroke: #555555; stroke-width: 0.6"/>
      </g>
     </g>
     <g id="text_28">
      <!-- −2 -->
      <g style="fill: #555555" transform="translate(20.456115 224.719108) scale(0.068 -0.068)">
       <use xlink:href="#DejaVuSans-2212"/>
       <use xlink:href="#DejaVuSans-32" transform="translate(83.789062 0)"/>
      </g>
     </g>
    </g>
    <g id="ytick_11">
     <g id="line2d_40">
      <path d="M 36.480803 200.787308 
L 226.720916 200.787308 
" clip-path="url(#p886b842a9c)" style="fill: none; stroke: #dddddd; stroke-width: 0.5; stroke-linecap: square"/>
     </g>
     <g id="line2d_41">
      <g>
       <use xlink:href="#m8a23b9f10e" x="36.480803" y="200.787308" style="fill: #555555; stroke: #555555; stroke-width: 0.6"/>
      </g>
     </g>
     <g id="text_29">
      <!-- −1 -->
      <g style="fill: #555555" transform="translate(20.456115 203.370777) scale(0.068 -0.068)">
       <use xlink:href="#DejaVuSans-2212"/>
       <use xlink:href="#DejaVuSans-31" transform="translate(83.789062 0)"/>
      </g>
     </g>
    </g>
    <g id="ytick_12">
     <g id="line2d_42">
      <path d="M 36.480803 179.438976 
L 226.720916 179.438976 
" clip-path="url(#p886b842a9c)" style="fill: none; stroke: #dddddd; stroke-width: 0.5; stroke-linecap: square"/>
     </g>
     <g id="line2d_43">
      <g>
       <use xlink:href="#m8a23b9f10e" x="36.480803" y="179.438976" style="fill: #555555; stroke: #555555; stroke-width: 0.6"/>
      </g>
     </g>
     <g id="text_30">
      <!-- 0 -->
      <g style="fill: #555555" transform="translate(26.154303 182.022445) scale(0.068 -0.068)">
       <use xlink:href="#DejaVuSans-30"/>
      </g>
     </g>
    </g>
    <g id="text_31">
     <!-- best validation NLL (nats) -->
     <g style="fill: #222222" transform="translate(14.95874 272.045767) rotate(-90) scale(0.072 -0.072)">
      <use xlink:href="#DejaVuSans-62"/>
      <use xlink:href="#DejaVuSans-65" transform="translate(63.476562 0)"/>
      <use xlink:href="#DejaVuSans-73" transform="translate(125 0)"/>
      <use xlink:href="#DejaVuSans-74" transform="translate(177.099609 0)"/>
      <use xlink:href="#DejaVuSans-20" transform="translate(216.308594 0)"/>
      <use xlink:href="#DejaVuSans-76" transform="translate(248.095703 0)"/>
      <use xlink:href="#DejaVuSans-61" transform="translate(307.275391 0)"/>
      <use xlink:href="#DejaVuSans-6c" transform="translate(368.554688 0)"/>
      <use xlink:href="#DejaVuSans-69" transform="translate(396.337891 0)"/>
      <use xlink:href="#DejaVuSans-64" transform="translate(424.121094 0)"/>
      <use xlink:href="#DejaVuSans-61" transform="translate(487.597656 0)"/>
      <use xlink:href="#DejaVuSans-74" transform="translate(548.876953 0)"/>
      <use xlink:href="#DejaVuSans-69" transform="translate(588.085938 0)"/>
      <use xlink:href="#DejaVuSans-6f" transform="translate(615.869141 0)"/>
      <use xlink:href="#DejaVuSans-6e" transform="translate(677.050781 0)"/>
      <use xlink:href="#DejaVuSans-20" transform="translate(740.429688 0)"/>
      <use xlink:href="#DejaVuSans-4e" transform="translate(772.216797 0)"/>
      <use xlink:href="#DejaVuSans-4c" transform="translate(847.021484 0)"/>
      <use xlink:href="#DejaVuSans-4c" transform="translate(902.734375 0)"/>
      <use xlink:href="#DejaVuSans-20" transform="translate(958.447266 0)"/>
      <use xlink:href="#DejaVuSans-28" transform="translate(990.234375 0)"/>
      <use xlink:href="#DejaVuSans-6e" transform="translate(1029.248047 0)"/>
      <use xlink:href="#DejaVuSans-61" transform="translate(1092.626953 0)"/>
      <use xlink:href="#DejaVuSans-74" transform="translate(1153.90625 0)"/>
      <use xlink:href="#DejaVuSans-73" transform="translate(1193.115234 0)"/>
      <use xlink:href="#DejaVuSans-29" transform="translate(1245.214844 0)"/>
     </g>
    </g>
   </g>
   <g id="line2d_44">
    <path d="M 91.550309 206.507691 
L 191.676685 256.942986 
" clip-path="url(#p886b842a9c)" style="fill: none; stroke: #bbbbbb; stroke-width: 0.9; stroke-linecap: square"/>
   </g>
   <g id="line2d_45">
    <path d="M 91.550309 182.026471 
L 191.676685 269.600189 
" clip-path="url(#p886b842a9c)" style="fill: none; stroke: #bbbbbb; stroke-width: 0.9; stroke-linecap: square"/>
   </g>
   <g id="line2d_46">
    <path d="M 91.550309 188.712869 
L 191.676685 204.901155 
" clip-path="url(#p886b842a9c)" style="fill: none; stroke: #bbbbbb; stroke-width: 0.9; stroke-linecap: square"/>
   </g>
   <g id="line2d_47">
    <defs>
     <path id="ma5d0dd8b93" d="M 0 2.75 
C 0.729309 2.75 1.428845 2.460243 1.944544 1.944544 
C 2.460243 1.428845 2.75 0.729309 2.75 0 
C 2.75 -0.729309 2.460243 -1.428845 1.944544 -1.944544 
C 1.428845 -2.460243 0.729309 -2.75 0 -2.75 
C -0.729309 -2.75 -1.428845 -2.460243 -1.944544 -1.944544 
C -2.460243 -1.428845 -2.75 -0.729309 -2.75 0 
C -2.75 0.729309 -2.460243 1.428845 -1.944544 1.944544 
C -1.428845 2.460243 -0.729309 2.75 0 2.75 
z
" style="stroke: #ffffff"/>
    </defs>
    <g clip-path="url(#p886b842a9c)">
     <use xlink:href="#ma5d0dd8b93" x="91.550309" y="206.507691" style="fill: #2a78d6; stroke: #ffffff"/>
    </g>
   </g>
   <g id="line2d_48">
    <defs>
     <path id="m7b59f99d4c" d="M 0 2.75 
C 0.729309 2.75 1.428845 2.460243 1.944544 1.944544 
C 2.460243 1.428845 2.75 0.729309 2.75 0 
C 2.75 -0.729309 2.460243 -1.428845 1.944544 -1.944544 
C 1.428845 -2.460243 0.729309 -2.75 0 -2.75 
C -0.729309 -2.75 -1.428845 -2.460243 -1.944544 -1.944544 
C -2.460243 -1.428845 -2.75 -0.729309 -2.75 0 
C -2.75 0.729309 -2.460243 1.428845 -1.944544 1.944544 
C -1.428845 2.460243 -0.729309 2.75 0 2.75 
z
" style="stroke: #ffffff"/>
    </defs>
    <g clip-path="url(#p886b842a9c)">
     <use xlink:href="#m7b59f99d4c" x="191.676685" y="256.942986" style="fill: #008300; stroke: #ffffff"/>
    </g>
   </g>
   <g id="line2d_49">
    <g clip-path="url(#p886b842a9c)">
     <use xlink:href="#ma5d0dd8b93" x="91.550309" y="182.026471" style="fill: #2a78d6; stroke: #ffffff"/>
    </g>
   </g>
   <g id="line2d_50">
    <g clip-path="url(#p886b842a9c)">
     <use xlink:href="#m7b59f99d4c" x="191.676685" y="269.600189" style="fill: #008300; stroke: #ffffff"/>
    </g>
   </g>
   <g id="line2d_51">
    <g clip-path="url(#p886b842a9c)">
     <use xlink:href="#ma5d0dd8b93" x="91.550309" y="188.712869" style="fill: #2a78d6; stroke: #ffffff"/>
    </g>
   </g>
   <g id="line2d_52">
    <g clip-path="url(#p886b842a9c)">
     <use xlink:href="#m7b59f99d4c" x="191.676685" y="204.901155" style="fill: #008300; stroke: #ffffff"/>
    </g>
   </g>
   <g id="patch_6">
    <path d="M 36.480803 273.978875 
L 36.480803 177.647785 
" style="fill: none; stroke: #999999; stroke-width: 0.6; stroke-linejoin: miter; stroke-linecap: square"/>
   </g>
   <g id="patch_7">
    <path d="M 36.480803 273.978875 
L 226.720916 273.978875 
" style="fill: none; stroke: #999999; stroke-width: 0.6; stroke-linejoin: miter; stroke-linecap: square"/>
   </g>
   <g id="text_32">
    <!-- seed 1234 -->
    <g style="fill: #555555" transform="translate(51.955309 208.507691) scale(0.064 -0.064)">
     <use xlink:href="#DejaVuSans-73"/>
     <use xlink:href="#DejaVuSans-65" transform="translate(52.099609 0)"/>
     <use xlink:href="#DejaVuSans-65" transform="translate(113.623047 0)"/>
     <use xlink:href="#DejaVuSans-64" transform="translate(175.146484 0)"/>
     <use xlink:href="#DejaVuSans-20" transform="translate(238.623047 0)"/>
     <use xlink:href="#DejaVuSans-31" transform="translate(270.410156 0)"/>
     <use xlink:href="#DejaVuSans-32" transform="translate(334.033203 0)"/>
     <use xlink:href="#DejaVuSans-33" transform="translate(397.65625 0)"/>
     <use xlink:href="#DejaVuSans-34" transform="translate(461.279297 0)"/>
    </g>
   </g>
   <g id="text_33">
    <!-- seed 1 -->
    <g style="fill: #555555" transform="translate(64.171309 184.026471) scale(0.064 -0.064)">
     <use xlink:href="#DejaVuSans-73"/>
     <use xlink:href="#DejaVuSans-65" transform="translate(52.099609 0)"/>
     <use xlink:href="#DejaVuSans-65" transform="translate(113.623047 0)"/>
     <use xlink:href="#DejaVuSans-64" transform="translate(175.146484 0)"/>
     <use xlink:href="#DejaVuSans-20" transform="translate(238.623047 0)"/>
     <use xlink:href="#DejaVuSans-31" transform="translate(270.410156 0)"/>
    </g>
   </g>
   <g id="text_34">
    <!-- seed 42 -->
    <g style="fill: #555555" transform="translate(60.099309 190.712869) scale(0.064 -0.064)">
     <use xlink:href="#DejaVuSans-73"/>
     <use xlink:href="#DejaVuSans-65" transform="translate(52.099609 0)"/>
     <use xlink:href="#DejaVuSans-65" transform="translate(113.623047 0)"/>
     <use xlink:href="#DejaVuSans-64" transform="translate(175.146484 0)"/>
     <use xlink:href="#DejaVuSans-20" transform="translate(238.623047 0)"/>
     <use xlink:href="#DejaVuSans-34" transform="translate(270.410156 0)"/>
     <use xlink:href="#DejaVuSans-32" transform="translate(334.033203 0)"/>
    </g>
   </g>
   <g id="text_35">
    <!-- (b)  Best validation NLL by seed -->
    <g style="fill: #222222" transform="translate(36.480803 174.647785) scale(0.075 -0.075)">
     <defs>
      <path id="DejaVuSans-42" d="M 1259 2228 
L 1259 519 
L 2272 519 
Q 2781 519 3026 730 
Q 3272 941 3272 1375 
Q 3272 1813 3026 2020 
Q 2781 2228 2272 2228 
L 1259 2228 
z
M 1259 4147 
L 1259 2741 
L 2194 2741 
Q 2656 2741 2882 2914 
Q 3109 3088 3109 3444 
Q 3109 3797 2882 3972 
Q 2656 4147 2194 4147 
L 1259 4147 
z
M 628 4666 
L 2241 4666 
Q 2963 4666 3353 4366 
Q 3744 4066 3744 3513 
Q 3744 3084 3544 2831 
Q 3344 2578 2956 2516 
Q 3422 2416 3680 2098 
Q 3938 1781 3938 1306 
Q 3938 681 3513 340 
Q 3088 0 2303 0 
L 628 0 
L 628 4666 
z
" transform="scale(0.015625)"/>
     </defs>
     <use xlink:href="#DejaVuSans-28"/>
     <use xlink:href="#DejaVuSans-62" transform="translate(39.013672 0)"/>
     <use xlink:href="#DejaVuSans-29" transform="translate(102.490234 0)"/>
     <use xlink:href="#DejaVuSans-20" transform="translate(141.503906 0)"/>
     <use xlink:href="#DejaVuSans-20" transform="translate(173.291016 0)"/>
     <use xlink:href="#DejaVuSans-42" transform="translate(205.078125 0)"/>
     <use xlink:href="#DejaVuSans-65" transform="translate(273.681641 0)"/>
     <use xlink:href="#DejaVuSans-73" transform="translate(335.205078 0)"/>
     <use xlink:href="#DejaVuSans-74" transform="translate(387.304688 0)"/>
     <use xlink:href="#DejaVuSans-20" transform="translate(426.513672 0)"/>
     <use xlink:href="#DejaVuSans-76" transform="translate(458.300781 0)"/>
     <use xlink:href="#DejaVuSans-61" transform="translate(517.480469 0)"/>
     <use xlink:href="#DejaVuSans-6c" transform="translate(578.759766 0)"/>
     <use xlink:href="#DejaVuSans-69" transform="translate(606.542969 0)"/>
     <use xlink:href="#DejaVuSans-64" transform="translate(634.326172 0)"/>
     <use xlink:href="#DejaVuSans-61" transform="translate(697.802734 0)"/>
     <use xlink:href="#DejaVuSans-74" transform="translate(759.082031 0)"/>
     <use xlink:href="#DejaVuSans-69" transform="translate(798.291016 0)"/>
     <use xlink:href="#DejaVuSans-6f" transform="translate(826.074219 0)"/>
     <use xlink:href="#DejaVuSans-6e" transform="translate(887.255859 0)"/>
     <use xlink:href="#DejaVuSans-20" transform="translate(950.634766 0)"/>
     <use xlink:href="#DejaVuSans-4e" transform="translate(982.421875 0)"/>
     <use xlink:href="#DejaVuSans-4c" transform="translate(1057.226562 0)"/>
     <use xlink:href="#DejaVuSans-4c" transform="translate(1112.939453 0)"/>
     <use xlink:href="#DejaVuSans-20" transform="translate(1168.652344 0)"/>
     <use xlink:href="#DejaVuSans-62" transform="translate(1200.439453 0)"/>
     <use xlink:href="#DejaVuSans-79" transform="translate(1263.916016 0)"/>
     <use xlink:href="#DejaVuSans-20" transform="translate(1323.095703 0)"/>
     <use xlink:href="#DejaVuSans-73" transform="translate(1354.882812 0)"/>
     <use xlink:href="#DejaVuSans-65" transform="translate(1406.982422 0)"/>
     <use xlink:href="#DejaVuSans-65" transform="translate(1468.505859 0)"/>
     <use xlink:href="#DejaVuSans-64" transform="translate(1530.029297 0)"/>
    </g>
   </g>
  </g>
 </g>
 <defs>
  <clipPath id="p9e7a15e215">
   <rect x="36.480803" y="17.338828" width="190.240114" height="110.780754"/>
  </clipPath>
  <clipPath id="p886b842a9c">
   <rect x="36.480803" y="177.647785" width="190.240114" height="96.33109"/>
  </clipPath>
 </defs>
</svg>
